<svg width="32" height="30" viewBox="0 0 32 30" fill="none" xmlns="http://www.w3.org/2000/svg">
<path d="M29.781 3.371H20.002L20.469 2.903C20.957 2.414 20.957 1.618 20.445 1.105C19.957 0.616998 19.161 0.616998 18.671 1.105L17.847 1.929C17.639 1.528 17.232 1.246 16.75 1.246H15.25C14.776 1.246 14.377 1.521 14.165 1.911L13.124 0.869998C12.635 0.381998 11.839 0.381998 11.326 0.894998C10.838 1.384 10.838 2.18 11.326 2.668L12.028 3.37H2.218C1.339 3.37 0.624001 4.085 0.624001 4.964V10.12C0.624001 10.327 0.792001 10.495 0.999001 10.495H2.131V27.933C2.131 28.794 2.832 29.496 3.694 29.496H13.968H18.031H28.312C29.173 29.496 29.875 28.795 29.875 27.933V10.496H31C31.207 10.496 31.375 10.328 31.375 10.121V4.965C31.375 4.086 30.66 3.371 29.781 3.371ZM18 2.839L19.201 1.637C19.398 1.441 19.719 1.441 19.938 1.661C20.134 1.856 20.134 2.177 19.938 2.373L18.94 3.371H18.656H18V2.839ZM14.75 2.496C14.75 2.221 14.975 1.996 15.25 1.996H16.75C17.025 1.996 17.25 2.221 17.25 2.496V3.371H14.75V2.496ZM11.857 2.138C11.661 1.943 11.661 1.622 11.881 1.402C12.076 1.205 12.398 1.205 12.593 1.402L14 2.808V3.371H13.351H13.091L11.857 2.138ZM2.507 9.746H1.375V4.965C1.375 4.5 1.754 4.121 2.219 4.121H12.976V9.746H2.507V9.746ZM13.594 28.746H3.694C3.246 28.746 2.881 28.382 2.881 27.933V10.496H13.35H13.593V28.746H13.594ZM17.656 28.746H14.343V10.496H17.656V28.746ZM18.281 9.746H18.031H13.968H13.725V4.121H14.374H17.624H18.28V9.746H18.281ZM29.125 27.934C29.125 28.382 28.761 28.747 28.312 28.747H18.406V10.497H18.656H29.125V27.934ZM30.625 9.746H29.5H19.031V4.121H29.781C30.246 4.121 30.625 4.5 30.625 4.965V9.746Z" fill="white"/>
</svg>
