<svg width="60" height="60" viewBox="0 0 60 60" fill="none" xmlns="http://www.w3.org/2000/svg">
<path d="M48 35V21C48.0068 17.8222 46.846 14.7526 44.7383 12.3744C42.6305 9.99619 39.7226 8.47506 36.567 8.1L39.9 1.447C39.9764 1.29412 40.0123 1.12422 40.0044 0.953503C39.9965 0.782786 39.9449 0.616954 39.8546 0.471833C39.7644 0.326712 39.6384 0.207145 39.4888 0.124544C39.3392 0.0419432 39.1709 -0.000935709 39 -2.75209e-07H21C20.8295 -7.97336e-05 20.6619 0.043424 20.5129 0.126379C20.364 0.209334 20.2387 0.328985 20.1491 0.473969C20.0594 0.618953 20.0083 0.784455 20.0006 0.954756C19.9928 1.12506 20.0288 1.2945 20.105 1.447L23.434 8.1C20.2825 8.48504 17.3804 10.0091 15.2745 12.385C13.1685 14.761 12.0039 17.825 12 21V39H14V21C14.0034 18.0837 15.1635 15.2878 17.2256 13.2256C19.2878 11.1635 22.0837 10.0034 25 10H35C36.4451 9.99789 37.8765 10.281 39.212 10.833C40.5475 11.3851 41.761 12.1953 42.7829 13.2171C43.8047 14.239 44.6149 15.4525 45.167 16.788C45.719 18.1235 46.0021 19.5549 46 21V35H48ZM34.382 8H25.618L22.618 2H37.382L34.382 8Z" fill="white"/>
<path d="M21.5 14.939C22.0475 14.6209 22.6359 14.3793 23.249 14.221L22.749 12.285C21.9604 12.4895 21.2032 12.8 20.498 13.208L21.5 14.939Z" fill="white"/>
<path d="M16 25H18V21C17.9975 20.0631 18.1846 19.1354 18.5499 18.2727C18.9153 17.41 19.4514 16.6301 20.126 15.98L18.733 14.546C17.8656 15.3817 17.1763 16.3844 16.7066 17.4936C16.2369 18.6027 15.9966 19.7955 16 21V25Z" fill="white"/>
<path d="M2.852 49.148L19.829 58.407C21.7398 59.4515 23.8824 59.9993 26.06 60H59C59.2652 60 59.5196 59.8946 59.7071 59.7071C59.8946 59.5196 60 59.2652 60 59V41C60 40.7348 59.8946 40.4804 59.7071 40.2929C59.5196 40.1054 59.2652 40 59 40H51.347L51.233 39.911C50.0584 38.9943 48.7602 38.2479 47.377 37.694C44.9856 36.7181 42.3956 36.3275 39.8228 36.5547C37.2499 36.7819 34.7685 37.6202 32.585 39H25C24.2148 38.9998 23.4407 39.1845 22.7402 39.5392C22.0397 39.8938 21.4325 40.4085 20.9679 41.0414C20.5034 41.6744 20.1944 42.4079 20.066 43.1825C19.9376 43.9571 19.9934 44.751 20.229 45.5L7.867 39.306C6.96739 38.8542 5.95856 38.6654 4.95645 38.7613C3.95435 38.8572 2.99962 39.2338 2.202 39.848C1.51963 40.3593 0.965486 41.0222 0.583329 41.7845C0.201172 42.5467 0.0014706 43.3873 -3.02992e-06 44.24V44.35C-0.00127936 45.3326 0.263098 46.2972 0.765151 47.1418C1.2672 47.9864 1.98826 48.6796 2.852 49.148V49.148ZM52 42H58V58H52V42ZM2 44.24C2.00366 43.6879 2.13664 43.1443 2.38827 42.6528C2.63991 42.1614 3.00319 41.7357 3.449 41.41C3.94807 41.0335 4.54265 40.8043 5.16533 40.7484C5.78801 40.6926 6.41388 40.8123 6.972 41.094L22.553 48.894C22.6916 48.9639 22.8447 49.0002 23 49H38V47H25C24.2043 47 23.4413 46.6839 22.8787 46.1213C22.3161 45.5587 22 44.7956 22 44C22 43.2043 22.3161 42.4413 22.8787 41.8787C23.4413 41.3161 24.2043 41 25 41H32.88C33.0758 40.9997 33.2673 40.9423 33.431 40.835C35.3611 39.564 37.5718 38.7827 39.8719 38.5586C42.1719 38.3345 44.4919 38.6745 46.631 39.549C47.8393 40.0331 48.9734 40.6848 50 41.485V58H26.06C24.2175 57.9993 22.4047 57.5358 20.788 56.652L3.806 47.391C3.25862 47.0942 2.80175 46.6548 2.4838 46.1194C2.16586 45.5841 1.99868 44.9727 2 44.35V44.24Z" fill="white"/>
<path d="M56 53H54V55H56V53Z" fill="white"/>
<path d="M31 35V33H32C33.0609 33 34.0783 32.5786 34.8284 31.8284C35.5786 31.0783 36 30.0609 36 29C36 27.9391 35.5786 26.9217 34.8284 26.1716C34.0783 25.4214 33.0609 25 32 25H28C27.4696 25 26.9609 24.7893 26.5858 24.4142C26.2107 24.0391 26 23.5304 26 23C26 22.4696 26.2107 21.9609 26.5858 21.5858C26.9609 21.2107 27.4696 21 28 21H35V19H31V17H29V19H28C26.9391 19 25.9217 19.4214 25.1716 20.1716C24.4214 20.9217 24 21.9391 24 23C24 24.0609 24.4214 25.0783 25.1716 25.8284C25.9217 26.5786 26.9391 27 28 27H32C32.5304 27 33.0391 27.2107 33.4142 27.5858C33.7893 27.9609 34 28.4696 34 29C34 29.5304 33.7893 30.0391 33.4142 30.4142C33.0391 30.7893 32.5304 31 32 31H25V33H29V35H31Z" fill="white"/>
</svg>
