<svg width="17" height="17" viewBox="0 0 17 17" fill="none" xmlns="http://www.w3.org/2000/svg">
<path d="M3.96778 0.529694C2.07129 0.529694 0.528202 2.07278 0.528202 3.96927C0.528202 5.86577 2.07129 7.40887 3.96778 7.40887C5.86428 7.40887 7.40943 5.86577 7.40943 3.96927C7.40943 2.07278 5.86428 0.529694 3.96778 0.529694ZM3.96879 1.58441C4.10111 1.58441 4.23337 1.67262 4.23337 1.849V2.15387C4.68692 2.2733 5.0266 2.68528 5.0266 3.1745C5.02629 3.24453 4.99825 3.31158 4.94862 3.36099C4.89898 3.4104 4.8318 3.43814 4.76176 3.43814C4.69173 3.43814 4.62454 3.4104 4.57491 3.36099C4.52527 3.31158 4.49723 3.24453 4.49692 3.1745C4.49692 2.87911 4.26314 2.64481 3.96775 2.64481C3.67236 2.64481 3.44065 2.87911 3.44065 3.1745C3.44065 3.46989 3.67236 3.70367 3.96775 3.70367C4.54912 3.70367 5.0266 4.18062 5.0266 4.76199C5.0266 5.25121 4.68692 5.66317 4.23337 5.78259V6.08438C4.23337 6.43725 3.7042 6.43725 3.7042 6.08438V5.78311C3.25012 5.66436 2.91149 5.2519 2.91149 4.76199C2.91068 4.72674 2.91692 4.69165 2.92986 4.65884C2.94279 4.62603 2.96215 4.59615 2.98679 4.57092C3.01144 4.5457 3.04089 4.52568 3.07339 4.51199C3.10589 4.49831 3.14081 4.49124 3.17607 4.49124C3.21134 4.49124 3.24625 4.49831 3.27875 4.51199C3.31126 4.52568 3.3407 4.5457 3.36535 4.57092C3.39 4.59615 3.40936 4.62603 3.42229 4.65884C3.43522 4.69165 3.44146 4.72674 3.44065 4.76199C3.44065 5.05738 3.67236 5.29166 3.96775 5.29166C4.26314 5.29166 4.49692 5.05738 4.49692 4.76199C4.49692 4.4666 4.26314 4.23282 3.96775 4.23282C3.38638 4.23282 2.91149 3.75587 2.91149 3.1745C2.91149 2.68459 3.25012 2.2721 3.7042 2.15335V1.849C3.7042 1.67257 3.83646 1.58441 3.96879 1.58441V1.58441ZM12.9388 1.58841C12.8726 1.59665 12.8119 1.62959 12.769 1.68063C12.726 1.73168 12.704 1.79705 12.7072 1.86368C12.7104 1.93031 12.7386 1.99328 12.7862 2.03998C12.8339 2.08667 12.8974 2.11365 12.9641 2.11551H14.4777C13.8391 2.9241 8.61645 9.26028 1.58698 9.26028C1.23412 9.26028 1.23412 9.78946 1.58698 9.78946C8.62226 9.78946 13.8151 3.78734 14.8177 2.54184V3.96915C14.8192 4.0383 14.8478 4.1041 14.8972 4.15247C14.9467 4.20083 15.0131 4.22791 15.0823 4.22791C15.1514 4.22791 15.2179 4.20083 15.2673 4.15247C15.3168 4.1041 15.3453 4.0383 15.3469 3.96915V1.85196C15.3466 1.78179 15.3184 1.71462 15.2686 1.66519C15.2188 1.61577 15.1514 1.58814 15.0812 1.58841H12.9641C12.9556 1.58801 12.9472 1.58801 12.9388 1.58841H12.9388ZM14.8152 2.11551H14.8182V2.11749L14.8152 2.11551ZM12.9641 6.87955C12.8187 6.88008 12.7005 6.99768 12.7 7.1431V15.3457H15.3469V7.1431C15.3464 6.99693 15.2275 6.87899 15.0813 6.87955H12.9641ZM9.23358 8.99673C9.09817 9.01033 8.99516 9.12419 8.99535 9.26028V15.3457H11.6417V9.26028C11.6411 9.11487 11.5235 8.99725 11.3781 8.99673H9.26094C9.25194 8.9962 9.24264 8.9962 9.23354 8.99673H9.23358ZM5.55577 11.1118C5.4096 11.1124 5.29166 11.2313 5.29222 11.3775V15.3457H7.9365V11.3775C7.93703 11.2313 7.8191 11.1124 7.67293 11.1118H5.55577ZM1.85261 13.229C1.70567 13.2285 1.58644 13.3477 1.587 13.4947V15.3457H4.23335V13.4947C4.23388 13.3477 4.11467 13.2285 3.96773 13.229H1.85261ZM0.780327 15.8754C0.414847 15.8945 0.441877 16.4217 0.793727 16.4046H16.1396C16.4924 16.4046 16.4924 15.8754 16.1396 15.8754H0.780327Z" fill="white"/>
</svg>
