<svg width="40" height="52" viewBox="0 0 40 52" fill="none" xmlns="http://www.w3.org/2000/svg">
<path d="M39.3125 20.562V10.5923C39.3125 10.311 39.1943 10.0425 38.9863 9.85303C38.7783 9.66455 38.5059 9.56982 38.2197 9.59619C30.8193 10.2905 25.127 7.55322 20.8262 1.24756C20.4531 0.700684 19.5469 0.700684 19.1738 1.24756C14.874 7.55225 9.18555 10.2896 1.78027 9.59619C1.49512 9.5708 1.22168 9.66455 1.01367 9.85303C0.805664 10.0425 0.6875 10.311 0.6875 10.5923V20.562C0.6875 33.3726 7.50879 45.0522 18.0664 50.3188L19.5449 51.0532C19.5635 51.063 19.583 51.0718 19.6016 51.0796C19.7305 51.1362 19.8662 51.1626 19.999 51.1626H20H20.001C20.1367 51.1626 20.2744 51.1353 20.4062 51.0767C20.4219 51.0688 20.4385 51.062 20.4541 51.0532L21.9346 50.3179C32.4912 45.0522 39.3125 33.3726 39.3125 20.562ZM21.043 48.5278L20 49.0464L18.958 48.5288C9.07422 43.5981 2.6875 32.6206 2.6875 20.562V11.6675C9.88965 12.0415 15.5771 9.37354 20 3.5249C24.4229 9.37354 30.1064 12.0464 37.3125 11.6675V20.562C37.3125 32.6206 30.9258 43.5981 21.043 48.5278Z" fill="white"/>
<path d="M20 13.811C13.3828 13.811 8 19.1938 8 25.811C8 32.4282 13.3828 37.811 20 37.811C26.6172 37.811 32 32.4282 32 25.811C32 19.1938 26.6172 13.811 20 13.811ZM20 35.811C14.4863 35.811 10 31.3247 10 25.811C10 20.2974 14.4863 15.811 20 15.811C25.5137 15.811 30 20.2974 30 25.811C30 31.3247 25.5137 35.811 20 35.811Z" fill="white"/>
<path d="M23 24.0894V22.7915C23 21.1479 21.6631 19.811 20.0205 19.811H19.9805C18.3369 19.811 17 21.1479 17 22.7915V24.0894C16.4052 24.4363 16 25.0743 16 25.811V29.811C16 30.9136 16.8975 31.811 18 31.811H22C23.1025 31.811 24 30.9136 24 29.811V25.811C24 25.0743 23.5948 24.4363 23 24.0894ZM19 22.7915C19 22.2505 19.4395 21.811 19.9805 21.811H20.0205C20.5605 21.811 21 22.2505 21 22.7915V23.811H19V22.7915ZM18 29.811V25.811H22L22.002 29.811H18Z" fill="white"/>
</svg>
