<svg width="64" height="64" viewBox="0 0 64 64" fill="none" xmlns="http://www.w3.org/2000/svg">
<path d="M56.0479 22.532C56.0483 22.5032 56.0483 22.4744 56.0483 22.446C56.0483 16.7009 51.3696 12.0271 45.6187 12.0271C44.374 12.0271 43.1748 12.2371 42.0366 12.6545C41.5615 6.13354 36.0957 0.973389 29.4448 0.973389C23.0415 0.973389 17.6719 5.88794 16.9512 12.1541C16.4111 12.0696 15.8521 12.0271 15.2793 12.0271C9.54004 12.0271 4.87061 16.7009 4.87061 22.446C4.87061 22.6497 4.87793 22.8557 4.89307 23.0701C1.97363 24.2097 0 27.054 0 30.2625C0 34.5095 3.45557 37.9651 7.70264 37.9651H13.6665C15.1655 48.2097 20.3037 54.3142 28.2393 60.6589L30.5693 62.5222C30.9897 62.8582 31.4937 63.0266 31.9976 63.0266C32.501 63.0266 33.0049 62.8582 33.4253 62.5222L35.7554 60.6589C43.6909 54.3142 48.8291 48.2097 50.3281 37.9651H56.2661C60.5308 37.9651 64 34.5095 64 30.2625C63.9995 25.9255 60.4385 22.3904 56.0479 22.532ZM34.5063 59.0969L32.1763 60.9602C32.0708 61.0452 31.9238 61.0447 31.8184 60.9602L29.4883 59.0969C20.6509 52.031 15.4473 45.3123 15.2075 32.239C18.6318 31.9255 21.6118 30.0271 23.2532 27.3025C23.8921 26.2434 24.3347 25.0632 24.5122 23.7971C24.5327 23.6536 24.6396 23.5085 24.8027 23.5085H39.1968C39.2805 23.5085 39.3479 23.5476 39.3979 23.6028C39.4434 23.6565 39.4729 23.7249 39.4824 23.7917C40.1163 28.3225 44.0458 31.7958 48.7832 32.2385C48.7532 33.8464 48.647 35.3914 48.4668 36.8416C48.4663 36.845 48.468 36.8479 48.4678 36.8513C47.1912 46.9954 42.2405 52.9133 34.5063 59.0969ZM56.2661 35.9651H50.5752C50.5813 35.9021 50.583 35.8347 50.5889 35.7717C50.7183 34.3513 50.7959 32.8684 50.7959 31.2849C50.7959 31.0076 50.6821 30.7566 50.499 30.5754C50.3181 30.3943 50.0681 30.2825 49.792 30.2825C45.7676 30.2825 42.0101 27.5221 41.4668 23.5095C41.3984 23.0383 41.1953 22.6243 40.907 22.2932C40.4871 21.8083 39.8784 21.5056 39.1953 21.5056H24.7993C23.6489 21.5056 22.6953 22.3503 22.5317 23.5154C22.4829 23.8645 22.4009 24.2034 22.304 24.5359C21.3289 27.8733 18.0269 30.2825 14.1973 30.2825C13.645 30.2825 13.1973 30.7302 13.1973 31.2825C13.1973 32.1335 13.2197 32.968 13.2598 33.7864C13.2781 34.1755 13.313 34.5442 13.3401 34.9221C13.3655 35.2693 13.3813 35.6262 13.4141 35.9651H7.70264C4.55811 35.9651 2 33.407 2 30.2625C2 27.6663 3.73975 25.3933 6.23047 24.7341C6.7207 24.6047 7.03613 24.1282 6.96436 23.6257C6.90039 23.178 6.87061 22.803 6.87061 22.446C6.87061 17.8035 10.6426 14.0271 15.2793 14.0271C16.0986 14.0271 16.8765 14.1326 17.5913 14.3406C17.8911 14.4275 18.2129 14.3708 18.4639 14.1858C18.7148 14.0012 18.8652 13.7102 18.8711 13.3987C18.9746 7.65015 23.7183 2.97339 29.4448 2.97339C35.3037 2.97339 40.0703 7.73071 40.0703 13.5779C40.0703 13.7532 40.0718 13.9275 40.0542 14.1028C40.0171 14.4729 40.1885 14.8328 40.499 15.0378C40.8101 15.2429 41.2095 15.2581 41.5337 15.0779C42.793 14.3806 44.1675 14.0271 45.6187 14.0271C50.2666 14.0271 54.0483 17.8035 54.0483 22.446C54.0483 22.8015 54.021 23.155 53.9668 23.4973C53.9165 23.8152 54.0225 24.1375 54.251 24.364C54.479 24.5901 54.8032 24.6921 55.1201 24.6394C55.5791 24.5627 55.9326 24.5281 56.2661 24.5281C59.4277 24.5281 62 27.1003 62 30.2625C62 33.407 59.4277 35.9651 56.2661 35.9651Z" fill="white"/>
<path d="M44.7549 34.5593C41.3062 33.2371 38.5376 30.5994 37.1592 27.322C37.0029 26.9509 36.6397 26.7097 36.2373 26.7097H27.7578C27.3555 26.7097 26.9922 26.9509 26.8359 27.322C25.458 30.5994 22.6895 33.2371 19.2398 34.5593C18.8193 34.7209 18.5581 35.1433 18.6025 35.5916C19.5596 45.28 24.0093 50.595 31.3721 56.5007C31.5547 56.6472 31.7759 56.7205 31.9976 56.7205C32.2188 56.7205 32.4404 56.6472 32.6231 56.5007C39.9858 50.5955 44.4351 45.281 45.3921 35.5916C45.4365 35.1433 45.1753 34.7209 44.7549 34.5593ZM31.9976 54.4343C25.4639 49.1013 21.6773 44.4329 20.6738 36.1316C24.085 34.6287 26.8496 31.9753 28.4053 28.7097H35.5898C37.146 31.9753 39.9111 34.6287 43.3208 36.1316C42.3174 44.4333 38.5308 49.1018 31.9976 54.4343Z" fill="white"/>
<path d="M31.9927 36.6624C30.0332 36.6624 28.4395 38.2605 28.4395 40.2249C28.4395 41.8347 29.522 43.1819 30.9927 43.6169V45.7683C30.9927 46.3201 31.4404 46.7683 31.9927 46.7683C32.5449 46.7683 32.9927 46.3201 32.9927 45.7683V43.6179C34.4683 43.1833 35.5552 41.8357 35.5552 40.2249C35.5552 38.2605 33.957 36.6624 31.9927 36.6624ZM31.9927 41.7781C31.1362 41.7781 30.4395 41.0808 30.4395 40.2249C30.4395 39.363 31.1362 38.6624 31.9927 38.6624C32.854 38.6624 33.5552 39.363 33.5552 40.2249C33.5552 41.0808 32.854 41.7781 31.9927 41.7781Z" fill="white"/>
</svg>
