<svg width="60" height="61" viewBox="0 0 60 61" fill="none" xmlns="http://www.w3.org/2000/svg">
<path d="M24 40H36C36.2652 40 36.5196 39.8946 36.7071 39.7071C36.8946 39.5196 37 39.2652 37 39V29C37 28.7348 36.8946 28.4804 36.7071 28.2929C36.5196 28.1054 36.2652 28 36 28H24C23.7348 28 23.4804 28.1054 23.2929 28.2929C23.1054 28.4804 23 28.7348 23 29V39C23 39.2652 23.1054 39.5196 23.2929 39.7071C23.4804 39.8946 23.7348 40 24 40ZM25 30H35V38H25V30Z" fill="white"/>
<path d="M1 19H11C11.2652 19 11.5196 18.8946 11.7071 18.7071C11.8946 18.5196 12 18.2652 12 18V15C11.9989 13.9706 11.7327 12.9589 11.2271 12.0623C10.7214 11.1657 9.99332 10.4145 9.113 9.881C9.92467 9.23523 10.5154 8.35301 10.8034 7.35658C11.0914 6.36014 11.0624 5.2988 10.7204 4.31959C10.3783 3.34038 9.74026 2.49177 8.89452 1.89132C8.04877 1.29087 7.03722 0.9683 6 0.9683C4.96278 0.9683 3.95123 1.29087 3.10548 1.89132C2.25974 2.49177 1.62166 3.34038 1.27964 4.31959C0.937629 5.2988 0.908606 6.36014 1.1966 7.35658C1.48459 8.35301 2.07533 9.23523 2.887 9.881C2.00668 10.4145 1.2786 11.1657 0.772943 12.0623C0.267283 12.9589 0.00108433 13.9706 0 15V18C0 18.2652 0.105357 18.5196 0.292893 18.7071C0.48043 18.8946 0.734784 19 1 19ZM6 11C6.5221 10.9992 7.03927 11.1011 7.522 11.3L6 13.333L4.478 11.3C4.96073 11.1011 5.4779 10.9992 6 11V11ZM3 6C3 5.40666 3.17595 4.82664 3.50559 4.33329C3.83524 3.83994 4.30377 3.45543 4.85195 3.22836C5.40013 3.0013 6.00333 2.94189 6.58527 3.05765C7.16721 3.1734 7.70176 3.45912 8.12132 3.87868C8.54088 4.29824 8.8266 4.83279 8.94236 5.41473C9.05811 5.99667 8.9987 6.59987 8.77164 7.14805C8.54458 7.69623 8.16006 8.16477 7.66671 8.49441C7.17336 8.82405 6.59334 9 6 9C5.20435 9 4.44129 8.68393 3.87868 8.12132C3.31607 7.55871 3 6.79565 3 6ZM2 15C2.00387 14.0955 2.31724 13.2196 2.888 12.518L5.2 15.6C5.29315 15.7242 5.41393 15.825 5.55279 15.8944C5.69164 15.9639 5.84475 16 6 16C6.15525 16 6.30836 15.9639 6.44721 15.8944C6.58607 15.825 6.70685 15.7242 6.8 15.6L9.112 12.518C9.68276 13.2196 9.99613 14.0955 10 15V17H2V15Z" fill="white"/>
<path d="M20 39.441V42C20 42.2652 20.1054 42.5196 20.2929 42.7071C20.4804 42.8946 20.7348 43 21 43H29V45H20C19.7348 45 19.4804 45.1054 19.2929 45.2929C19.1054 45.4804 19 45.7348 19 46V50C19 50.2652 19.1054 50.5196 19.2929 50.7071C19.4804 50.8946 19.7348 51 20 51H40C40.2652 51 40.5196 50.8946 40.7071 50.7071C40.8946 50.5196 41 50.2652 41 50V46C41 45.7348 40.8946 45.4804 40.7071 45.2929C40.5196 45.1054 40.2652 45 40 45H31V43H39C39.2652 43 39.5196 42.8946 39.7071 42.7071C39.8946 42.5196 40 42.2652 40 42V39.441C41.8745 37.9549 43.3881 36.0635 44.4273 33.9088C45.4664 31.7542 46.0041 29.3921 46 27C46 22.7565 44.3143 18.6869 41.3137 15.6863C38.3131 12.6857 34.2435 11 30 11C25.7565 11 21.6869 12.6857 18.6863 15.6863C15.6857 18.6869 14 22.7565 14 27C13.9959 29.3921 14.5336 31.7542 15.5727 33.9088C16.6119 36.0635 18.1255 37.9549 20 39.441V39.441ZM39 49H21V47H39V49ZM16.058 28H20V36.752C17.681 34.4004 16.2824 31.2951 16.058 28V28ZM39.158 20.474C39.9543 20.0225 40.7077 19.4994 41.409 18.911C42.8918 20.9953 43.7707 23.4483 43.949 26H40C40.0095 24.1251 39.7243 22.2604 39.155 20.474H39.158ZM37.96 25H31V22.769C33.1873 22.6718 35.3409 22.194 37.364 21.357C37.7025 22.5443 37.9025 23.7667 37.96 25ZM31 20.77V14.146C32.2723 14.5774 33.4372 15.2767 34.4162 16.1967C35.3952 17.1167 36.1655 18.2359 36.675 19.479C34.873 20.2365 32.9524 20.6734 31 20.77ZM29 14.146V20.77C27.0476 20.6734 25.127 20.2365 23.325 19.479C23.8345 18.2359 24.6048 17.1167 25.5838 16.1967C26.5628 15.2767 27.7277 14.5774 29 14.146V14.146ZM29 22.769V25H22.04C22.0989 23.7666 22.3002 22.5441 22.64 21.357C24.6619 22.1935 26.8141 22.6713 29 22.769V22.769ZM20 26H16.051C16.2302 23.448 17.1101 20.995 18.594 18.911C19.2953 19.4994 20.0487 20.0225 20.845 20.474C20.2757 22.2604 19.9905 24.1251 20 26V26ZM38 41H22V27H38V41ZM40 36.752V28H43.942C43.7176 31.2951 42.319 34.4004 40 36.752V36.752ZM40.135 17.369C39.5984 17.8253 39.0255 18.237 38.422 18.6C37.5551 16.7206 36.2524 15.075 34.622 13.8C36.7164 14.5362 38.6059 15.7595 40.135 17.369V17.369ZM25.376 13.8C23.7456 15.075 22.4429 16.7206 21.576 18.6C20.9725 18.2376 20.3996 17.8266 19.863 17.371C21.3918 15.7608 23.2814 14.5368 25.376 13.8V13.8Z" fill="white"/>
<path d="M1 61H11C11.2652 61 11.5196 60.8946 11.7071 60.7071C11.8946 60.5196 12 60.2652 12 60V57C11.9989 55.9706 11.7327 54.9589 11.2271 54.0623C10.7214 53.1657 9.99332 52.4145 9.113 51.881C9.92467 51.2352 10.5154 50.353 10.8034 49.3566C11.0914 48.3601 11.0624 47.2988 10.7204 46.3196C10.3783 45.3404 9.74026 44.4918 8.89452 43.8913C8.04877 43.2909 7.03722 42.9683 6 42.9683C4.96278 42.9683 3.95123 43.2909 3.10548 43.8913C2.25974 44.4918 1.62166 45.3404 1.27964 46.3196C0.937629 47.2988 0.908606 48.3601 1.1966 49.3566C1.48459 50.353 2.07533 51.2352 2.887 51.881C2.00668 52.4145 1.2786 53.1657 0.772943 54.0623C0.267283 54.9589 0.00108433 55.9706 0 57V60C0 60.2652 0.105357 60.5196 0.292893 60.7071C0.48043 60.8946 0.734784 61 1 61ZM6 53C6.5221 52.9992 7.03927 53.1011 7.522 53.3L6 55.333L4.478 53.3C4.96073 53.1011 5.4779 52.9992 6 53ZM3 48C3 47.4067 3.17595 46.8266 3.50559 46.3333C3.83524 45.8399 4.30377 45.4554 4.85195 45.2284C5.40013 45.0013 6.00333 44.9419 6.58527 45.0576C7.16721 45.1734 7.70176 45.4591 8.12132 45.8787C8.54088 46.2982 8.8266 46.8328 8.94236 47.4147C9.05811 47.9967 8.9987 48.5999 8.77164 49.148C8.54458 49.6962 8.16006 50.1648 7.66671 50.4944C7.17336 50.8241 6.59334 51 6 51C5.20435 51 4.44129 50.6839 3.87868 50.1213C3.31607 49.5587 3 48.7956 3 48ZM2 57C2.00387 56.0955 2.31724 55.2196 2.888 54.518L5.2 57.6C5.29315 57.7242 5.41393 57.825 5.55279 57.8944C5.69164 57.9639 5.84475 58 6 58C6.15525 58 6.30836 57.9639 6.44721 57.8944C6.58607 57.825 6.70685 57.7242 6.8 57.6L9.112 54.518C9.68276 55.2196 9.99613 56.0955 10 57V59H2V57Z" fill="white"/>
<path d="M57.113 51.881C57.9247 51.2352 58.5154 50.353 58.8034 49.3566C59.0914 48.3601 59.0624 47.2988 58.7204 46.3196C58.3783 45.3404 57.7403 44.4918 56.8945 43.8913C56.0488 43.2909 55.0372 42.9683 54 42.9683C52.9628 42.9683 51.9512 43.2909 51.1055 43.8913C50.2597 44.4918 49.6217 45.3404 49.2796 46.3196C48.9376 47.2988 48.9086 48.3601 49.1966 49.3566C49.4846 50.353 50.0753 51.2352 50.887 51.881C50.0067 52.4145 49.2786 53.1657 48.7729 54.0623C48.2673 54.9589 48.0011 55.9706 48 57V60C48 60.2652 48.1054 60.5196 48.2929 60.7071C48.4804 60.8946 48.7348 61 49 61H59C59.2652 61 59.5196 60.8946 59.7071 60.7071C59.8946 60.5196 60 60.2652 60 60V57C59.9989 55.9706 59.7327 54.9589 59.2271 54.0623C58.7214 53.1657 57.9933 52.4145 57.113 51.881V51.881ZM54 53C54.5221 52.9992 55.0393 53.1011 55.522 53.3L54 55.333L52.478 53.3C52.9607 53.1011 53.4779 52.9992 54 53V53ZM51 48C51 47.4067 51.1759 46.8266 51.5056 46.3333C51.8352 45.8399 52.3038 45.4554 52.852 45.2284C53.4001 45.0013 54.0033 44.9419 54.5853 45.0576C55.1672 45.1734 55.7018 45.4591 56.1213 45.8787C56.5409 46.2982 56.8266 46.8328 56.9424 47.4147C57.0581 47.9967 56.9987 48.5999 56.7716 49.148C56.5446 49.6962 56.1601 50.1648 55.6667 50.4944C55.1734 50.8241 54.5933 51 54 51C53.2044 51 52.4413 50.6839 51.8787 50.1213C51.3161 49.5587 51 48.7956 51 48V48ZM58 59H50V57C50.0039 56.0955 50.3172 55.2196 50.888 54.518L53.2 57.6C53.2931 57.7242 53.4139 57.825 53.5528 57.8944C53.6916 57.9639 53.8448 58 54 58C54.1552 58 54.3084 57.9639 54.4472 57.8944C54.5861 57.825 54.7069 57.7242 54.8 57.6L57.112 54.518C57.6828 55.2196 57.9961 56.0955 58 57V59Z" fill="white"/>
<path d="M57.113 9.881C57.9247 9.23523 58.5154 8.35301 58.8034 7.35658C59.0914 6.36014 59.0624 5.2988 58.7204 4.31959C58.3783 3.34038 57.7403 2.49177 56.8945 1.89132C56.0488 1.29087 55.0372 0.9683 54 0.9683C52.9628 0.9683 51.9512 1.29087 51.1055 1.89132C50.2597 2.49177 49.6217 3.34038 49.2796 4.31959C48.9376 5.2988 48.9086 6.36014 49.1966 7.35658C49.4846 8.35301 50.0753 9.23523 50.887 9.881C50.0067 10.4145 49.2786 11.1657 48.7729 12.0623C48.2673 12.9589 48.0011 13.9706 48 15V18C48 18.2652 48.1054 18.5196 48.2929 18.7071C48.4804 18.8946 48.7348 19 49 19H59C59.2652 19 59.5196 18.8946 59.7071 18.7071C59.8946 18.5196 60 18.2652 60 18V15C59.9989 13.9706 59.7327 12.9589 59.2271 12.0623C58.7214 11.1657 57.9933 10.4145 57.113 9.881ZM54 11C54.5221 10.9992 55.0393 11.1011 55.522 11.3L54 13.333L52.478 11.3C52.9607 11.1011 53.4779 10.9992 54 11V11ZM51 6C51 5.40666 51.1759 4.82664 51.5056 4.33329C51.8352 3.83994 52.3038 3.45543 52.852 3.22836C53.4001 3.0013 54.0033 2.94189 54.5853 3.05765C55.1672 3.1734 55.7018 3.45912 56.1213 3.87868C56.5409 4.29824 56.8266 4.83279 56.9424 5.41473C57.0581 5.99667 56.9987 6.59987 56.7716 7.14805C56.5446 7.69623 56.1601 8.16477 55.6667 8.49441C55.1734 8.82405 54.5933 9 54 9C53.2044 9 52.4413 8.68393 51.8787 8.12132C51.3161 7.55871 51 6.79565 51 6V6ZM58 17H50V15C50.0039 14.0955 50.3172 13.2196 50.888 12.518L53.2 15.6C53.2931 15.7242 53.4139 15.825 53.5528 15.8944C53.6916 15.9639 53.8448 16 54 16C54.1552 16 54.3084 15.9639 54.4472 15.8944C54.5861 15.825 54.7069 15.7242 54.8 15.6L57.112 12.518C57.6828 13.2196 57.9961 14.0955 58 15V17Z" fill="white"/>
<path d="M12 21H10V23H12V21Z" fill="white"/>
<path d="M12 39H10V41H12V39Z" fill="white"/>
<path d="M50 21H48V23H50V21Z" fill="white"/>
<path d="M50 39H48V41H50V39Z" fill="white"/>
</svg>
