<svg id="Capa_1" data-name="Capa 1" xmlns="http://www.w3.org/2000/svg" viewBox="0 0 541.48 541.48"><defs><style>.cls-1{fill:#fff;}</style></defs><title>Gotcha_Coin_logo_RGB_white</title><path class="cls-1" d="M139.92,493.64a16.61,16.61,0,0,1-6.45-6.32,19.11,19.11,0,0,1,0-18.26,16.39,16.39,0,0,1,6.45-6.28,19,19,0,0,1,9.29-2.26,18.83,18.83,0,0,1,9.26,2.26,16.45,16.45,0,0,1,6.41,6.28,19.11,19.11,0,0,1,0,18.26,16.68,16.68,0,0,1-6.41,6.32,18.62,18.62,0,0,1-9.26,2.29A18.81,18.81,0,0,1,139.92,493.64Zm15.28-4.74a10.87,10.87,0,0,0,4.16-4.32,14.28,14.28,0,0,0,0-12.76,10.66,10.66,0,0,0-4.16-4.29,12.66,12.66,0,0,0-12,0,10.84,10.84,0,0,0-4.19,4.29,14,14,0,0,0,0,12.76,11.06,11.06,0,0,0,4.19,4.32,12.43,12.43,0,0,0,12,0Z"/><path class="cls-1" d="M193.78,493.51a9.38,9.38,0,0,1-3.4,1.8,14.24,14.24,0,0,1-4.19.62q-5.23,0-8.12-2.81t-2.88-8V466H169.3v-5.17h5.89v-7.59h6.28v7.59h9.95V466h-9.95v18.78a6.08,6.08,0,0,0,1.41,4.32,5.24,5.24,0,0,0,4,1.51,7.57,7.57,0,0,0,4.91-1.64Z"/><path class="cls-1" d="M204.22,493.64a16.79,16.79,0,0,1-6.51-6.32,18.87,18.87,0,0,1,0-18.26,16.56,16.56,0,0,1,6.51-6.28,19.48,19.48,0,0,1,9.46-2.26,18.17,18.17,0,0,1,8.41,1.9,13.56,13.56,0,0,1,5.73,5.5L223,471a10.69,10.69,0,0,0-4.06-3.73,11.59,11.59,0,0,0-5.37-1.24,12.42,12.42,0,0,0-6.12,1.51,10.73,10.73,0,0,0-4.25,4.29,13,13,0,0,0-1.54,6.38,13.1,13.1,0,0,0,1.54,6.45,10.73,10.73,0,0,0,4.25,4.29,12.41,12.41,0,0,0,6.12,1.5,11.59,11.59,0,0,0,5.37-1.24,10.67,10.67,0,0,0,4.06-3.73l4.78,3a13.74,13.74,0,0,1-5.73,5.53,17.9,17.9,0,0,1-8.41,1.93A19.26,19.26,0,0,1,204.22,493.64Z"/><path class="cls-1" d="M262.86,464.36q3.89,3.83,3.89,11.22v20h-6.28V476.3q0-5-2.42-7.59t-6.94-2.55a10.81,10.81,0,0,0-8,3q-2.95,3-2.95,8.54v17.87h-6.28V447h6.28v18.78a13,13,0,0,1,5.14-3.86,17.67,17.67,0,0,1,7.1-1.38Q259,460.53,262.86,464.36Z"/><path class="cls-1" d="M300.42,464.06q3.83,3.53,3.83,10.54v20.94h-6V491a9.92,9.92,0,0,1-4.48,3.7,17.12,17.12,0,0,1-6.9,1.28q-5.83,0-9.33-2.81a9.67,9.67,0,0,1-.16-14.76q3.34-2.78,10.6-2.78H298v-1.24a8,8,0,0,0-2.36-6.22q-2.36-2.16-6.94-2.16a18.39,18.39,0,0,0-6,1,15.5,15.5,0,0,0-5,2.72L275.06,465a19,19,0,0,1,6.41-3.3,26.81,26.81,0,0,1,7.92-1.15Q296.6,460.53,300.42,464.06Zm-6.25,25.42a9.18,9.18,0,0,0,3.8-4.55V480.1h-9.69q-8,0-8,5.37a4.85,4.85,0,0,0,2,4.12,9.27,9.27,0,0,0,5.63,1.51A11.67,11.67,0,0,0,294.17,489.49Z"/><path class="cls-1" d="M339.23,493a22.4,22.4,0,0,1-8.67-8.38,24.53,24.53,0,0,1,0-24,22.34,22.34,0,0,1,8.71-8.38,25.47,25.47,0,0,1,12.43-3,26,26,0,0,1,9.82,1.8,20.11,20.11,0,0,1,7.59,5.33l-4.25,4.12A17.07,17.07,0,0,0,352,455a18.68,18.68,0,0,0-9.23,2.29,16.63,16.63,0,0,0-6.45,6.31,18.6,18.6,0,0,0,0,18,16.62,16.62,0,0,0,6.45,6.32,18.68,18.68,0,0,0,9.23,2.29,17.1,17.1,0,0,0,12.89-5.5l4.25,4.12a20.34,20.34,0,0,1-7.62,5.37,25.79,25.79,0,0,1-9.85,1.83A25.29,25.29,0,0,1,339.23,493Z"/><path class="cls-1" d="M380,493.64a16.61,16.61,0,0,1-6.45-6.32,19.11,19.11,0,0,1,0-18.26,16.39,16.39,0,0,1,6.45-6.28,19,19,0,0,1,9.29-2.26,18.84,18.84,0,0,1,9.26,2.26,16.45,16.45,0,0,1,6.41,6.28,19.11,19.11,0,0,1,0,18.26,16.68,16.68,0,0,1-6.41,6.32,18.62,18.62,0,0,1-9.26,2.29A18.81,18.81,0,0,1,380,493.64Zm15.28-4.74a10.87,10.87,0,0,0,4.16-4.32,14.28,14.28,0,0,0,0-12.76,10.66,10.66,0,0,0-4.16-4.29,12.66,12.66,0,0,0-12,0,10.85,10.85,0,0,0-4.19,4.29,14,14,0,0,0,0,12.76,11.07,11.07,0,0,0,4.19,4.32,12.43,12.43,0,0,0,12,0Z"/><path class="cls-1" d="M414.49,453a3.86,3.86,0,0,1-1.21-2.88,4,4,0,0,1,1.21-2.91,4.14,4.14,0,0,1,3-1.21,4.26,4.26,0,0,1,3,1.15,3.76,3.76,0,0,1,1.21,2.85,4,4,0,0,1-1.21,3,4.13,4.13,0,0,1-3,1.21A4.19,4.19,0,0,1,414.49,453Zm-.1,7.85h6.28v34.69H414.4Z"/><path class="cls-1" d="M460,464.36q3.89,3.83,3.9,11.22v20h-6.29V476.3q0-5-2.42-7.59t-6.94-2.55a10.81,10.81,0,0,0-8,3q-2.95,3-2.95,8.54v17.87H431V460.85h6v5.24a12.22,12.22,0,0,1,5.14-4.12,18,18,0,0,1,7.36-1.44Q456.15,460.53,460,464.36Z"/><path class="cls-1" d="M118,487.3a19.47,19.47,0,0,1-10.76,3,19,19,0,0,1-9.35-2.3A16.48,16.48,0,0,1,90,478.64h9.42v-6.3H89a17.61,17.61,0,0,1,2.35-8.83,16.59,16.59,0,0,1,6.53-6.3,19.39,19.39,0,0,1,9.42-2.26,18.49,18.49,0,0,1,13.32,5.32l4.07-4.07a20.45,20.45,0,0,0-7.65-5.28,26.67,26.67,0,0,0-10-1.8,26.24,26.24,0,0,0-12.63,3,22.27,22.27,0,0,0-8.79,8.4,23.21,23.21,0,0,0-3.17,11.81H77.54v6.3H83.2a22.1,22.1,0,0,0,2.45,6,22.61,22.61,0,0,0,8.76,8.4,25.68,25.68,0,0,0,12.54,3.05,29.7,29.7,0,0,0,9.45-1.51,24.46,24.46,0,0,0,7.94-4.33V472.34H118Z"/><path class="cls-1" d="M290.64,222.15a19.36,19.36,0,0,1-10.75,2.94,19.14,19.14,0,0,1-9.36-2.29,16.73,16.73,0,0,1-6.53-6.34,16.34,16.34,0,0,1-1.33-3h9.41v-6.29H261.65a17.72,17.72,0,0,1,2.35-8.83,16.65,16.65,0,0,1,6.53-6.31,19.47,19.47,0,0,1,9.43-2.25,18.52,18.52,0,0,1,13.32,5.32l4.07-4.07a20.51,20.51,0,0,0-7.66-5.29,26.7,26.7,0,0,0-10-1.82,26.37,26.37,0,0,0-12.63,3,22.26,22.26,0,0,0-8.8,8.41,23.36,23.36,0,0,0-3.17,11.82h-4.94v6.29h5.66a21.71,21.71,0,0,0,2.45,6,22.75,22.75,0,0,0,8.75,8.41,25.89,25.89,0,0,0,12.55,3,30,30,0,0,0,9.46-1.5,24.83,24.83,0,0,0,7.93-4.34V207.18h-6.31Zm0,0a19.36,19.36,0,0,1-10.75,2.94,19.14,19.14,0,0,1-9.36-2.29,16.73,16.73,0,0,1-6.53-6.34,16.34,16.34,0,0,1-1.33-3h9.41v-6.29H261.65a17.72,17.72,0,0,1,2.35-8.83,16.65,16.65,0,0,1,6.53-6.31,19.47,19.47,0,0,1,9.43-2.25,18.52,18.52,0,0,1,13.32,5.32l4.07-4.07a20.51,20.51,0,0,0-7.66-5.29,26.7,26.7,0,0,0-10-1.82,26.37,26.37,0,0,0-12.63,3,22.26,22.26,0,0,0-8.8,8.41,23.36,23.36,0,0,0-3.17,11.82h-4.94v6.29h5.66a21.71,21.71,0,0,0,2.45,6,22.75,22.75,0,0,0,8.75,8.41,25.89,25.89,0,0,0,12.55,3,30,30,0,0,0,9.46-1.5,24.83,24.83,0,0,0,7.93-4.34V207.18h-6.31Zm0,0a19.36,19.36,0,0,1-10.75,2.94,19.14,19.14,0,0,1-9.36-2.29,16.73,16.73,0,0,1-6.53-6.34,16.34,16.34,0,0,1-1.33-3h9.41v-6.29H261.65a17.72,17.72,0,0,1,2.35-8.83,16.65,16.65,0,0,1,6.53-6.31,19.47,19.47,0,0,1,9.43-2.25,18.52,18.52,0,0,1,13.32,5.32l4.07-4.07a20.51,20.51,0,0,0-7.66-5.29,26.7,26.7,0,0,0-10-1.82,26.37,26.37,0,0,0-12.63,3,22.26,22.26,0,0,0-8.8,8.41,23.36,23.36,0,0,0-3.17,11.82h-4.94v6.29h5.66a21.71,21.71,0,0,0,2.45,6,22.75,22.75,0,0,0,8.75,8.41,25.89,25.89,0,0,0,12.55,3,30,30,0,0,0,9.46-1.5,24.83,24.83,0,0,0,7.93-4.34V207.18h-6.31Zm0,0a19.36,19.36,0,0,1-10.75,2.94,19.14,19.14,0,0,1-9.36-2.29,16.73,16.73,0,0,1-6.53-6.34,16.34,16.34,0,0,1-1.33-3h9.41v-6.29H261.65a17.72,17.72,0,0,1,2.35-8.83,16.65,16.65,0,0,1,6.53-6.31,19.47,19.47,0,0,1,9.43-2.25,18.52,18.52,0,0,1,13.32,5.32l4.07-4.07a20.51,20.51,0,0,0-7.66-5.29,26.7,26.7,0,0,0-10-1.82,26.37,26.37,0,0,0-12.63,3,22.26,22.26,0,0,0-8.8,8.41,23.36,23.36,0,0,0-3.17,11.82h-4.94v6.29h5.66a21.71,21.71,0,0,0,2.45,6,22.75,22.75,0,0,0,8.75,8.41,25.89,25.89,0,0,0,12.55,3,30,30,0,0,0,9.46-1.5,24.83,24.83,0,0,0,7.93-4.34V207.18h-6.31ZM273.75,64.24C184,64.24,111,137.25,111,227s73,162.74,162.74,162.74A163,163,0,0,0,421,296.19c1.73-3.67,3.33-7.44,4.78-11.26-5.66,3.88-14.29,8.2-24.84,8.35h-.54c-12.53,0-25-5.87-37.27-17.49,9.29-2.95,30.73-6.53,63.76,6.18.06-.16.12-.31.17-.47,1.05-2.91,2-5.88,2.88-8.87A162.26,162.26,0,0,0,436.49,227C436.49,137.25,363.49,64.24,273.75,64.24Zm33.36,91.33a112.43,112.43,0,0,1,40.32,30.54c12.46,15,21.32,33.68,26.35,55.65a146.8,146.8,0,0,0-21.25-2.31,113.36,113.36,0,0,0-14.24-39.12C328.22,183,309.45,161,275.23,145.78A131.77,131.77,0,0,1,307.11,155.57Zm-57.33-11.06c46.8,13.65,70.3,39.72,81.77,59.3a107.24,107.24,0,0,1,13.28,35.53c-34.88.1-68,9.55-72.68,11v0c-20.65,5.94-46.42,12.45-65,17C205.19,250.86,197.88,166.39,249.78,144.51ZM184.09,272.78c-13.25-.83-35.89-3.9-43.5-8.77-.47-8.44-1.24-48.54,24.56-80,15.46-18.84,37.58-31.23,65.92-37-16.87,13.78-27.65,36.65-31.45,67.34a229.7,229.7,0,0,0,.16,54.75c-7.32,1.79-12.82,3.09-15.41,3.7Zm222.19-4.89c-27.79-5.85-44.73,0-50.29,2.53,0,0-.05,0-.07,0l-1.9,1-.68.35c-3.84,2.77-32.76,17.54-58.33,30.57l-.29.15a90.6,90.6,0,0,1-36.17,8.22c-26.05.54-48.79-10.13-67.68-31.69,15.2-3.63,54.29-13.13,83.36-21.5a.53.53,0,0,0,.16,0l.23-.1c2.43-.74,59.61-17.5,102.69-7.19l.06-.26c3.31,2.5,10.83,7,28,17.36Zm22.54,14.82-1.89-.74c-.35,1-.72,2-1.11,3C426.94,284.16,427.94,283.41,428.82,282.71ZM273.75,45.38A181.6,181.6,0,1,0,455.35,227,181.61,181.61,0,0,0,273.75,45.38Zm158.4,244.38c-25,63-86.61,107.6-158.4,107.6-93.95,0-170.38-76.43-170.38-170.38S179.8,56.61,273.75,56.61,444.13,133,444.13,227a169.84,169.84,0,0,1-7.39,49.67C435.39,281.1,433.85,285.47,432.15,289.76ZM258.26,219.48a22.75,22.75,0,0,0,8.75,8.41,25.89,25.89,0,0,0,12.55,3,30,30,0,0,0,9.46-1.5,24.83,24.83,0,0,0,7.93-4.34V207.18h-6.31v15a19.36,19.36,0,0,1-10.75,2.94,19.14,19.14,0,0,1-9.36-2.29,16.73,16.73,0,0,1-6.53-6.34,16.34,16.34,0,0,1-1.33-3h9.41v-6.29H261.65a17.72,17.72,0,0,1,2.35-8.83,16.65,16.65,0,0,1,6.53-6.31,19.47,19.47,0,0,1,9.43-2.25,18.52,18.52,0,0,1,13.32,5.32l4.07-4.07a20.51,20.51,0,0,0-7.66-5.29,26.7,26.7,0,0,0-10-1.82,26.37,26.37,0,0,0-12.63,3,22.26,22.26,0,0,0-8.8,8.41,23.36,23.36,0,0,0-3.17,11.82h-4.94v6.29h5.66A21.71,21.71,0,0,0,258.26,219.48Zm32.38,2.67a19.36,19.36,0,0,1-10.75,2.94,19.14,19.14,0,0,1-9.36-2.29,16.73,16.73,0,0,1-6.53-6.34,16.34,16.34,0,0,1-1.33-3h9.41v-6.29H261.65a17.72,17.72,0,0,1,2.35-8.83,16.65,16.65,0,0,1,6.53-6.31,19.47,19.47,0,0,1,9.43-2.25,18.52,18.52,0,0,1,13.32,5.32l4.07-4.07a20.51,20.51,0,0,0-7.66-5.29,26.7,26.7,0,0,0-10-1.82,26.37,26.37,0,0,0-12.63,3,22.26,22.26,0,0,0-8.8,8.41,23.36,23.36,0,0,0-3.17,11.82h-4.94v6.29h5.66a21.71,21.71,0,0,0,2.45,6,22.75,22.75,0,0,0,8.75,8.41,25.89,25.89,0,0,0,12.55,3,30,30,0,0,0,9.46-1.5,24.83,24.83,0,0,0,7.93-4.34V207.18h-6.31Zm0,0a19.36,19.36,0,0,1-10.75,2.94,19.14,19.14,0,0,1-9.36-2.29,16.73,16.73,0,0,1-6.53-6.34,16.34,16.34,0,0,1-1.33-3h9.41v-6.29H261.65a17.72,17.72,0,0,1,2.35-8.83,16.65,16.65,0,0,1,6.53-6.31,19.47,19.47,0,0,1,9.43-2.25,18.52,18.52,0,0,1,13.32,5.32l4.07-4.07a20.51,20.51,0,0,0-7.66-5.29,26.7,26.7,0,0,0-10-1.82,26.37,26.37,0,0,0-12.63,3,22.26,22.26,0,0,0-8.8,8.41,23.36,23.36,0,0,0-3.17,11.82h-4.94v6.29h5.66a21.71,21.71,0,0,0,2.45,6,22.75,22.75,0,0,0,8.75,8.41,25.89,25.89,0,0,0,12.55,3,30,30,0,0,0,9.46-1.5,24.83,24.83,0,0,0,7.93-4.34V207.18h-6.31Zm0,0a19.36,19.36,0,0,1-10.75,2.94,19.14,19.14,0,0,1-9.36-2.29,16.73,16.73,0,0,1-6.53-6.34,16.34,16.34,0,0,1-1.33-3h9.41v-6.29H261.65a17.72,17.72,0,0,1,2.35-8.83,16.65,16.65,0,0,1,6.53-6.31,19.47,19.47,0,0,1,9.43-2.25,18.52,18.52,0,0,1,13.32,5.32l4.07-4.07a20.51,20.51,0,0,0-7.66-5.29,26.7,26.7,0,0,0-10-1.82,26.37,26.37,0,0,0-12.63,3,22.26,22.26,0,0,0-8.8,8.41,23.36,23.36,0,0,0-3.17,11.82h-4.94v6.29h5.66a21.71,21.71,0,0,0,2.45,6,22.75,22.75,0,0,0,8.75,8.41,25.89,25.89,0,0,0,12.55,3,30,30,0,0,0,9.46-1.5,24.83,24.83,0,0,0,7.93-4.34V207.18h-6.31Zm0,0a19.36,19.36,0,0,1-10.75,2.94,19.14,19.14,0,0,1-9.36-2.29,16.73,16.73,0,0,1-6.53-6.34,16.34,16.34,0,0,1-1.33-3h9.41v-6.29H261.65a17.72,17.72,0,0,1,2.35-8.83,16.65,16.65,0,0,1,6.53-6.31,19.47,19.47,0,0,1,9.43-2.25,18.52,18.52,0,0,1,13.32,5.32l4.07-4.07a20.51,20.51,0,0,0-7.66-5.29,26.7,26.7,0,0,0-10-1.82,26.37,26.37,0,0,0-12.63,3,22.26,22.26,0,0,0-8.8,8.41,23.36,23.36,0,0,0-3.17,11.82h-4.94v6.29h5.66a21.71,21.71,0,0,0,2.45,6,22.75,22.75,0,0,0,8.75,8.41,25.89,25.89,0,0,0,12.55,3,30,30,0,0,0,9.46-1.5,24.83,24.83,0,0,0,7.93-4.34V207.18h-6.31Z"/><path class="cls-1" d="M320.2,186.67l-.1.1q-2.65-3.09-5.73-6.2,1.77,1.64,3.39,3.41Z"/><path class="cls-1" d="M428.82,282.71c-.88.7-1.88,1.45-3,2.22.39-1,.76-2,1.11-3Z"/><path class="cls-1" d="M426.93,282c-.35,1-.72,2-1.11,3,1.12-.77,2.12-1.52,3-2.22Z"/></svg>